<svg width="1227.9" height="188.6" xmlns="http://www.w3.org/2000/svg">

 <g>
  <title>background</title>
  <rect fill="none" id="canvas_background" height="402" width="582" y="-1" x="-1"/>
 </g>
 <g>
  <title>Layer 1</title>
  <circle fill="#1b1642" id="svg_1" r="5.3" cy="85.7" cx="241.2" class="st0"/>
  <path fill="#ffffff" id="svg_3" d="m444.8,48l0,102l-24.8,0l0,-63.8l-22.1,63.8l-21.5,0l-22.2,-63.9l0,63.9l-24.8,0l0,-102l30.4,0l27.7,71l27.2,-71l30.1,0z" class="st0"/>
  <path fill="#ffffff" id="svg_4" d="m508.7,72.1c4.5,2.8 7.7,6.6 9.9,11.5l0,-14.6l24.7,0l0,81l-24.7,0l0,-14.7c-2.1,4.8 -5.4,8.7 -9.9,11.5c-4.5,2.8 -9.8,4.2 -16,4.2c-6.7,0 -12.7,-1.7 -17.9,-5c-5.3,-3.3 -9.4,-8.2 -12.5,-14.5c-3,-6.3 -4.6,-13.7 -4.6,-22.1c0,-8.5 1.5,-15.9 4.6,-22.1s7.2,-11 12.5,-14.4c5.3,-3.3 11.3,-5 17.9,-5c6.2,0 11.6,1.4 16,4.2zm-20.8,22.8c-3.2,3.5 -4.9,8.3 -4.9,14.5s1.6,11 4.9,14.5c3.2,3.5 7.5,5.2 12.9,5.2c5.2,0 9.5,-1.8 12.9,-5.4c3.3,-3.6 5,-8.4 5,-14.4c0,-6.1 -1.7,-10.9 -5,-14.5c-3.3,-3.5 -7.6,-5.3 -12.9,-5.3c-5.4,0.2 -9.7,2 -12.9,5.4z" class="st0"/>
  <path fill="#ffffff" id="svg_5" d="m562.2,36.8c2.7,-2.5 6.3,-3.7 10.7,-3.7c4.5,0 8,1.2 10.7,3.7s4.1,5.6 4.1,9.4c0,3.7 -1.4,6.8 -4.1,9.2c-2.7,2.5 -6.3,3.7 -10.7,3.7c-4.5,0 -8,-1.2 -10.7,-3.7s-4.1,-5.5 -4.1,-9.2c0,-3.8 1.4,-6.9 4.1,-9.4zm23.1,32.2l0,81l-24.8,0l0,-81l24.8,0z" class="st0"/>
  <path fill="#ffffff" id="svg_6" d="m627.2,42.5l0,107.5l-24.8,0l0,-107.5l24.8,0z" class="st0"/>
  <path fill="#ffffff" id="svg_7" d="m691.1,72.1c4.5,2.8 7.7,6.6 9.9,11.5l0,-14.6l24.7,0l0,81l-24.7,0l0,-14.7c-2.1,4.8 -5.4,8.7 -9.9,11.5s-9.8,4.2 -16,4.2c-6.7,0 -12.7,-1.7 -17.9,-5c-5.3,-3.3 -9.4,-8.2 -12.5,-14.5c-3,-6.3 -4.6,-13.7 -4.6,-22.1c0,-8.5 1.5,-15.9 4.6,-22.1s7.2,-11 12.5,-14.4c5.3,-3.3 11.3,-5 17.9,-5c6.3,0 11.6,1.4 16,4.2zm-20.8,22.8c-3.2,3.5 -4.9,8.3 -4.9,14.5s1.6,11 4.9,14.5c3.2,3.5 7.5,5.2 12.9,5.2c5.2,0 9.5,-1.8 12.9,-5.4c3.3,-3.6 5,-8.4 5,-14.4c0,-6.1 -1.7,-10.9 -5,-14.5c-3.3,-3.5 -7.6,-5.3 -12.9,-5.3c-5.4,0.2 -9.7,2 -12.9,5.4z" class="st0"/>
  <path fill="#ffffff" id="svg_8" d="m764.8,129.2l37.5,0l0,20.8l-64.6,0l0,-19.6l34.9,-40.8l-34.3,0l0,-20.6l62.6,0l0,19.6l-36.1,40.6z" class="st0"/>
  <path fill="#ffffff" id="svg_9" d="m832.7,69l19.5,49.7l18.2,-49.7l27.5,0l-50.5,119.7l-27.4,0l19,-41.7l-34,-78l27.7,0z" class="st0"/>
  <path fill="#ffffff" id="svg_11" d="m284.6,15.2c2.5,-6.2 1.1,-10.8 -3.8,-12.9s-9.5,0.3 -11.9,6.3c-3.6,8.8 -7.1,17.6 -10.4,26.6c-1.2,3.3 -2.8,4.6 -6.4,4.6c-3.7,0 -4.9,-1.8 -5.8,-4.7c-2.9,-9.2 -5.9,-18.5 -8.9,-27.6c-1.9,-5.7 -6.2,-8.4 -10.7,-7c-5.1,1.6 -7.3,6 -5.5,11.9c2.8,9.3 5.7,18.5 8.8,27.7c1.1,3.3 1.1,5.4 -2.3,7.4c-4.3,2.5 -7.8,6 -11.2,9.6c-10.7,11.3 -17.7,24.9 -24.6,38.7c-4.7,9.4 -9.9,18.3 -16.1,26.7c-5.5,7.5 -11.8,14.4 -19,20.6c-32.2,27.8 -68.7,33.1 -108.2,18.8c-16.6,-6 -27.8,-17.9 -30.8,-35.9c-0.3,-1.9 -0.5,-3.8 -0.6,-5.7c-0.6,-10.7 1.9,-21 6.5,-30.8c12.5,-26.7 33.8,-43.8 61.1,-53.6c18.1,-6.5 36.4,-8.1 54.6,0c19.5,8.7 27.4,30.5 18.2,49.6c-3.1,6.4 -6.8,12.3 -11.1,17.8c-2.8,3.6 -5.9,7.1 -9.3,10.4c-4.9,4.8 -10.2,9.2 -17,11.4c-2.3,0.7 -4.5,1.3 -6.5,-0.6c-1.9,-1.8 -1,-3.9 -0.5,-5.9c1.2,-4.5 3.2,-8.6 5.6,-12.5c1.7,-2.9 3.4,-5.9 4.5,-9c0.8,-2.1 1.4,-4.3 1.6,-6.6c2.7,-22.5 -18.9,-39 -39.5,-30.4c-19.7,8.2 -32.6,22.1 -37.7,41.8c-0.7,2.6 -1.2,5.2 -1.6,8c-2.8,19 9.5,32.3 28.7,31.7c7.5,-0.2 14.1,-3.1 20,-7.3c1.8,-1.3 3.2,-1.9 4.9,0.2c8.1,10 21.6,9.7 32.3,3.8c12.5,-6.9 22.2,-16.5 30.2,-27.6c3.7,-5.2 7.1,-10.8 10.2,-16.7c13.4,-25.3 5,-55.6 -19.6,-70.5c-16,-9.7 -33.3,-11.3 -51.5,-9.3c-44.9,5.1 -85.5,38.7 -98,82.2c-6.6,22.9 -3.6,44.4 12.6,62.9c0.6,0.7 1.3,1.4 1.9,2.1l0.1,0.1c1.3,1.2 2.6,2.4 4,3.6l0.1,0.1c14.2,11.7 38.1,19.7 65.7,21l3.5,0c7.1,-0.1 14.3,-0.3 21.4,-0.7c7.5,-0.4 15,-0.9 22.5,-1.7c32.1,-3.5 62.7,-11.5 90.6,-28.2c22.7,-13.6 41.6,-31 52.5,-55.7c7.8,-17.6 9.5,-35.1 -4.3,-51c-1.5,-1.8 -1.2,-3.4 -0.5,-5.3c3.8,-9.4 7.4,-18.9 11.2,-28.4zm-176.8,73.6c-5.4,14.4 -13.8,26.9 -28,34.5c-2.2,1.2 -4.7,1.3 -7.2,1.4c-6.6,-0.1 -9.8,-3.7 -9.7,-11c0.2,-15.6 15.8,-35 31,-38.5c8.2,-1.9 16.8,5.9 13.9,13.6zm158.7,-9.4c-1.9,14.1 -9.3,25.7 -18.5,36.1c-20.4,23.2 -46.9,36 -76.1,44.2c-2.5,0.7 -5.1,1.3 -7.7,1.9c-0.4,0.1 -1,-0.1 -1.5,-0.2c-0.1,-1.8 1.4,-2.4 2.4,-3.3c17.9,-14.9 31.1,-33.5 41.6,-54.1c5.3,-10.3 10.3,-20.8 17.6,-30c3.9,-4.9 8,-9.4 13.2,-12.8c6.4,-4.3 13.5,-7.2 20.7,-2.7c7.8,4.6 9.4,12.6 8.3,20.9zm-25.3,1c-2.9,0 -5.3,2.4 -5.3,5.3s2.4,5.3 5.3,5.3s5.3,-2.4 5.3,-5.3s-2.4,-5.3 -5.3,-5.3z" class="st0"/>
  <circle fill="#ffffff" id="svg_12" r="5.3" cy="85.7" cx="241.2" class="st0"/>
  <path fill="#f9917a" id="svg_13" d="m985.9,0.4l230.8,0c6.2,0 11.2,6.2 11.2,13.7l0,93.7c0,7.7 -5.1,13.7 -11.2,13.7l-230.8,0c-6.2,0 -11.2,-6.2 -11.2,-13.7l0,-93.7c0,-7.5 5,-13.7 11.2,-13.7z" class="st1"/>
  <path fill="#ffffff" id="svg_15" d="m1060.8,64.9c1.9,2.3 2.8,5 2.8,8.1c0,4.2 -1.4,7.6 -4.2,10c-2.8,2.5 -6.9,3.7 -12.3,3.7l-20.2,0l0,-50.8l19.9,0c5.1,0 9,1.1 11.7,3.4c2.7,2.3 4.1,5.4 4.1,9.4c0,3.2 -0.8,5.8 -2.5,7.8c-1.7,2 -3.9,3.3 -6.6,4c2.9,0.7 5.4,2.1 7.3,4.4zm-25.8,-7.1l10.2,0c2.9,0 5.1,-0.7 6.6,-2c1.5,-1.3 2.3,-3.2 2.3,-5.6c0,-2.4 -0.8,-4.2 -2.3,-5.5c-1.5,-1.3 -3.8,-2 -6.9,-2l-9.9,0l0,15.1zm17.6,20.1c1.7,-1.4 2.6,-3.4 2.6,-5.9c0,-2.5 -0.9,-4.5 -2.6,-6c-1.7,-1.4 -4.2,-2.2 -7.3,-2.2l-10.3,0l0,16.2l10.4,0c3.1,0 5.5,-0.7 7.2,-2.1z" class="st2"/>
  <path fill="#ffffff" id="svg_16" d="m1079.5,42.6l0,15.4l18.7,0l0,6.3l-18.7,0l0,15.8l20.9,0l0,6.7l-29.1,0l0,-50.9l29.1,0l0,6.6l-20.9,0l0,0.1z" class="st2"/>
  <path fill="#ffffff" id="svg_17" d="m1141.1,35.9l0,6.6l-14.2,0l0,44.2l-8.3,0l0,-44.1l-14.1,0l0,-6.6l36.6,0l0,-0.1z" class="st2"/>
  <path fill="#ffffff" id="svg_18" d="m1177.5,75.7l-21.5,0l-3.9,11l-8.8,0l18.7,-50l9.4,0l18.6,50l-8.8,0l-3.7,-11zm-2.3,-6.3l-8.4,-23.8l-8.4,23.8l16.8,0z" class="st2"/>
 </g>
</svg>